<svg width="179" height="179" viewBox="0 0 179 179" fill="none" xmlns="http://www.w3.org/2000/svg">
<g filter="url(#filter0_d_2082_925)">
<rect x="19" y="15" width="141" height="141" rx="9" stroke="#C5970D" stroke-width="6" shape-rendering="crispEdges"/>
<g clip-path="url(#clip0_2082_925)">
<path fill-rule="evenodd" clip-rule="evenodd" d="M89.2917 46.125V71.8542C89.2917 73.4289 89.9172 74.9391 91.0307 76.0526C92.1442 77.1661 93.6544 77.7917 95.2292 77.7917H120.958V117.375C120.958 119.475 120.124 121.488 118.64 122.973C117.155 124.458 115.141 125.292 113.042 125.292H65.5417C63.442 125.292 61.4284 124.458 59.9437 122.973C58.4591 121.488 57.625 119.475 57.625 117.375V54.0417C57.625 51.942 58.4591 49.9284 59.9437 48.4437C61.4284 46.9591 63.442 46.125 65.5417 46.125H89.2917ZM77.4167 93.625C76.3669 93.625 75.36 94.042 74.6177 94.7844C73.8754 95.5267 73.4583 96.5335 73.4583 97.5833C73.4583 98.6331 73.8754 99.64 74.6177 100.382C75.36 101.125 76.3669 101.542 77.4167 101.542C78.4665 101.542 79.4733 101.125 80.2156 100.382C80.958 99.64 81.375 98.6331 81.375 97.5833C81.375 96.5335 80.958 95.5267 80.2156 94.7844C79.4733 94.042 78.4665 93.625 77.4167 93.625ZM89.2917 93.625C88.2418 93.625 87.235 94.042 86.4927 94.7844C85.7504 95.5267 85.3333 96.5335 85.3333 97.5833C85.3333 98.6331 85.7504 99.64 86.4927 100.382C87.235 101.125 88.2418 101.542 89.2917 101.542C90.3415 101.542 91.3483 101.125 92.0906 100.382C92.833 99.64 93.25 98.6331 93.25 97.5833C93.25 96.5335 92.833 95.5267 92.0906 94.7844C91.3483 94.042 90.3415 93.625 89.2917 93.625ZM101.167 93.625C100.117 93.625 99.11 94.042 98.3677 94.7844C97.6254 95.5267 97.2083 96.5335 97.2083 97.5833C97.2083 98.6331 97.6254 99.64 98.3677 100.382C99.11 101.125 100.117 101.542 101.167 101.542C102.216 101.542 103.223 101.125 103.966 100.382C104.708 99.64 105.125 98.6331 105.125 97.5833C105.125 96.5335 104.708 95.5267 103.966 94.7844C103.223 94.042 102.216 93.625 101.167 93.625ZM97.2083 46.2952C98.7081 46.6133 100.083 47.36 101.167 48.4446L118.639 65.9167C119.723 67.0002 120.47 68.3753 120.788 69.875H97.2083V46.2952Z" fill="#C5970D"/>
</g>
</g>
<defs>
<filter id="filter0_d_2082_925" x="0.1" y="0.1" width="178.8" height="178.8" filterUnits="userSpaceOnUse" color-interpolation-filters="sRGB">
<feFlood flood-opacity="0" result="BackgroundImageFix"/>
<feColorMatrix in="SourceAlpha" type="matrix" values="0 0 0 0 0 0 0 0 0 0 0 0 0 0 0 0 0 0 127 0" result="hardAlpha"/>
<feOffset dy="4"/>
<feGaussianBlur stdDeviation="7.95"/>
<feComposite in2="hardAlpha" operator="out"/>
<feColorMatrix type="matrix" values="0 0 0 0 0 0 0 0 0 0 0 0 0 0 0 0 0 0 0.25 0"/>
<feBlend mode="normal" in2="BackgroundImageFix" result="effect1_dropShadow_2082_925"/>
<feBlend mode="normal" in="SourceGraphic" in2="effect1_dropShadow_2082_925" result="shape"/>
</filter>
<clipPath id="clip0_2082_925">
<rect width="95" height="95" fill="white" transform="translate(42 38)"/>
</clipPath>
</defs>
</svg>
