<svg width="179" height="179" viewBox="0 0 179 179" fill="none" xmlns="http://www.w3.org/2000/svg">
<g filter="url(#filter0_d_2082_930)">
<rect x="19" y="15" width="141" height="141" rx="9" stroke="#C5970D" stroke-width="6" shape-rendering="crispEdges"/>
<g clip-path="url(#clip0_2082_930)">
<path fill-rule="evenodd" clip-rule="evenodd" d="M57.8332 49.875C55.7335 49.875 53.7199 50.7091 52.2352 52.1937C50.7506 53.6784 49.9165 55.692 49.9165 57.7917V113.208C49.9165 115.308 50.7506 117.322 52.2352 118.806C53.7199 120.291 55.7335 121.125 57.8332 121.125H121.167C123.266 121.125 125.28 120.291 126.764 118.806C128.249 117.322 129.083 115.308 129.083 113.208V67.6875C129.083 65.5879 128.249 63.5742 126.764 62.0896C125.28 60.6049 123.266 59.7708 121.167 59.7708H91.3998L85.8621 52.8438C85.1205 51.9175 84.1802 51.1698 83.1106 50.6559C82.0411 50.142 80.8697 49.8751 79.6832 49.875H57.8332ZM78.3057 78.2642C79.048 77.5221 80.0546 77.1052 81.1042 77.1052C82.1538 77.1052 83.1605 77.5221 83.9028 78.2642L89.4998 83.8613L95.0969 78.2642C95.4621 77.8861 95.8988 77.5846 96.3818 77.3771C96.8647 77.1696 97.3841 77.0605 97.9097 77.0559C98.4353 77.0513 98.9565 77.1515 99.443 77.3505C99.9295 77.5495 100.371 77.8434 100.743 78.2151C101.115 78.5868 101.409 79.0287 101.608 79.5152C101.807 80.0016 101.907 80.5229 101.902 81.0485C101.898 81.574 101.789 82.0935 101.581 82.5764C101.374 83.0593 101.072 83.4961 100.694 83.8613L95.0969 89.4583L100.694 95.0554C101.415 95.802 101.814 96.8018 101.805 97.8397C101.796 98.8776 101.38 99.8704 100.646 100.604C99.9119 101.338 98.9191 101.754 97.8812 101.763C96.8434 101.773 95.8435 101.374 95.0969 100.653L89.4998 95.0554L83.9028 100.653C83.5376 101.031 83.1008 101.332 82.6179 101.54C82.135 101.747 81.6156 101.856 81.09 101.861C80.5644 101.865 80.0431 101.765 79.5567 101.566C79.0702 101.367 78.6283 101.073 78.2566 100.702C77.8849 100.33 77.591 99.888 77.392 99.4015C77.193 98.915 77.0928 98.3938 77.0974 97.8682C77.102 97.3426 77.2112 96.8232 77.4186 96.3403C77.6261 95.8573 77.9276 95.4206 78.3057 95.0554L83.9028 89.4583L78.3057 83.8613C77.5636 83.119 77.1467 82.1123 77.1467 81.0627C77.1467 80.0131 77.5636 79.0065 78.3057 78.2642Z" fill="#C5970D"/>
</g>
</g>
<defs>
<filter id="filter0_d_2082_930" x="0.1" y="0.1" width="178.8" height="178.8" filterUnits="userSpaceOnUse" color-interpolation-filters="sRGB">
<feFlood flood-opacity="0" result="BackgroundImageFix"/>
<feColorMatrix in="SourceAlpha" type="matrix" values="0 0 0 0 0 0 0 0 0 0 0 0 0 0 0 0 0 0 127 0" result="hardAlpha"/>
<feOffset dy="4"/>
<feGaussianBlur stdDeviation="7.95"/>
<feComposite in2="hardAlpha" operator="out"/>
<feColorMatrix type="matrix" values="0 0 0 0 0 0 0 0 0 0 0 0 0 0 0 0 0 0 0.25 0"/>
<feBlend mode="normal" in2="BackgroundImageFix" result="effect1_dropShadow_2082_930"/>
<feBlend mode="normal" in="SourceGraphic" in2="effect1_dropShadow_2082_930" result="shape"/>
</filter>
<clipPath id="clip0_2082_930">
<rect width="95" height="95" fill="white" transform="translate(42 38)"/>
</clipPath>
</defs>
</svg>
