<svg width="48" height="48" viewBox="0 0 48 48" fill="none" xmlns="http://www.w3.org/2000/svg">
<path fill-rule="evenodd" clip-rule="evenodd" d="M38.043 26.952C37.5448 27.6983 36.7946 28.2404 35.9295 28.4791C35.0645 28.7178 34.1425 28.6372 33.332 28.252C29.713 26.554 26.109 24.653 26.109 24.653C24.9 26.797 23.489 29.998 22.532 32.271C21.851 33.888 20.202 34.917 18.54 34.357C17.378 33.9674 16.2738 33.4231 15.257 32.739C13.802 31.766 13.604 29.837 14.53 28.352C16.499 25.195 18.986 21.472 21.444 18.312C22.65 16.762 24.83 16.45 26.515 17.458C28.709 18.771 31.675 20.484 33.695 21.405C35.31 19.176 37.91 14.954 39.298 12.665C39.913 11.652 40.912 10.856 42.052 11.181C42.685 11.361 43.336 11.664 43.87 12.027C44.782 12.647 44.824 13.833 44.426 14.861C43.539 17.149 41.559 21.671 38.043 26.952Z" stroke="black" stroke-width="3" stroke-linecap="round" stroke-linejoin="round"/>
<path d="M3 3C3 19.305 3.301 35.309 3.436 41.65C3.45085 42.4182 3.76263 43.1508 4.30592 43.6941C4.84922 44.2374 5.58181 44.5491 6.35 44.564C12.691 44.699 28.695 45 45 45" stroke="black" stroke-width="3" stroke-linecap="round" stroke-linejoin="round"/>
</svg>
