<svg width="48" height="48" viewBox="0 0 48 48" fill="none" xmlns="http://www.w3.org/2000/svg">
<g clip-path="url(#clip0_1209_3387)">
<path d="M2.6 3.51599L29.188 10.154C30.8151 10.6323 32.2512 11.6091 33.2938 12.9467C34.3365 14.2843 34.9332 15.9153 35 17.61V41.61C35.0436 42.3398 34.9105 43.0695 34.6119 43.7369C34.3133 44.4043 33.8581 44.9898 33.2848 45.4436C32.7116 45.8975 32.0373 46.2064 31.3192 46.344C30.6011 46.4815 29.8604 46.4438 29.16 46.234L6.848 40.986C5.2164 40.5367 3.77017 39.5796 2.71878 38.2535C1.66738 36.9274 1.06539 35.3011 1 33.61V7.60999C1.00475 6.02015 1.63841 4.49678 2.7626 3.37259C3.8868 2.2484 5.41016 1.61473 7 1.60999H41C42.59 1.61421 44.1137 2.24771 45.238 3.37201C46.3623 4.49631 46.9958 6.01998 47 7.60999V29.61C46.9958 31.2 46.3623 32.7237 45.238 33.848C44.1137 34.9723 42.59 35.6058 41 35.61H35" stroke="black" stroke-width="2" stroke-linecap="round" stroke-linejoin="round"/>
<path d="M19.008 7.60999H39.008" stroke="black" stroke-width="2" stroke-linecap="round" stroke-linejoin="round"/>
<path d="M22.008 27.61C22.008 28.6709 22.4294 29.6883 23.1796 30.4384C23.9297 31.1886 24.9471 31.61 26.008 31.61C27.0689 31.61 28.0863 31.1886 28.8364 30.4384C29.5866 29.6883 30.008 28.6709 30.008 27.61C30.008 26.5491 29.5866 25.5317 28.8364 24.7816C28.0863 24.0314 27.0689 23.61 26.008 23.61C24.9471 23.61 23.9297 24.0314 23.1796 24.7816C22.4294 25.5317 22.008 26.5491 22.008 27.61Z" stroke="black" stroke-width="2" stroke-linecap="round" stroke-linejoin="round"/>
<path d="M35.008 17.61H39.008" stroke="black" stroke-width="2" stroke-linecap="round" stroke-linejoin="round"/>
</g>
<defs>
<clipPath id="clip0_1209_3387">
<rect width="48" height="48" fill="white"/>
</clipPath>
</defs>
</svg>
