<svg width="49" height="49" viewBox="0 0 49 49" fill="none" xmlns="http://www.w3.org/2000/svg">
<g clip-path="url(#clip0_1206_3256)">
<path d="M17.258 16.25C17.258 18.2198 17.646 20.1704 18.3998 21.9903C19.1536 23.8101 20.2585 25.4637 21.6514 26.8566C23.0443 28.2495 24.6979 29.3544 26.5177 30.1082C28.3376 30.862 30.2882 31.25 32.258 31.25C34.2278 31.25 36.1784 30.862 37.9983 30.1082C39.8181 29.3544 41.4717 28.2495 42.8646 26.8566C44.2575 25.4637 45.3624 23.8101 46.1162 21.9903C46.87 20.1704 47.258 18.2198 47.258 16.25C47.258 14.2802 46.87 12.3296 46.1162 10.5097C45.3624 8.68986 44.2575 7.03628 42.8646 5.6434C41.4717 4.25052 39.8181 3.14563 37.9983 2.39181C36.1784 1.63799 34.2278 1.25 32.258 1.25C30.2882 1.25 28.3376 1.63799 26.5177 2.39181C24.6979 3.14563 23.0443 4.25052 21.6514 5.6434C20.2585 7.03628 19.1536 8.68986 18.3998 10.5097C17.646 12.3296 17.258 14.2802 17.258 16.25Z" stroke="black" stroke-width="2" stroke-linecap="round" stroke-linejoin="round"/>
<path d="M17.31 17.302C14.2601 17.0851 11.2168 17.8054 8.58776 19.3665C5.9587 20.9275 3.86948 23.2547 2.59998 26.0362C1.33048 28.8178 0.941334 31.9209 1.48468 34.9298C2.02803 37.9387 3.47791 40.7097 5.6401 42.8716C7.80228 45.0335 10.5735 46.483 13.5825 47.0259C16.5915 47.5688 19.6945 47.1792 22.4759 45.9093C25.2573 44.6394 27.5841 42.5498 29.1448 39.9206C30.7055 37.2913 31.4253 34.2479 31.208 31.198" stroke="black" stroke-width="2" stroke-linecap="round" stroke-linejoin="round"/>
<path d="M2.22 10.32L6.232 14.306L10.22 10.296" stroke="black" stroke-width="2" stroke-linecap="round" stroke-linejoin="round"/>
<path d="M16.196 2.276C14.8828 2.27993 13.5832 2.54249 12.3714 3.04867C11.1597 3.55486 10.0595 4.29476 9.1337 5.22613C8.2079 6.15751 7.47461 7.26211 6.97571 8.47688C6.4768 9.69164 6.22205 10.9928 6.226 12.306V14.306" stroke="black" stroke-width="2" stroke-linecap="round" stroke-linejoin="round"/>
<path d="M46.296 38.18L42.284 34.194L38.296 38.204" stroke="black" stroke-width="2" stroke-linecap="round" stroke-linejoin="round"/>
<path d="M32.32 46.224C33.6332 46.22 34.9328 45.9575 36.1446 45.4513C37.3563 44.9451 38.4565 44.2052 39.3823 43.2738C40.3081 42.3425 41.0414 41.2379 41.5403 40.0231C42.0392 38.8083 42.2939 37.5072 42.29 36.194V34.194" stroke="black" stroke-width="2" stroke-linecap="round" stroke-linejoin="round"/>
<path d="M17.25 39.25C16.4394 39.3437 15.6181 39.253 14.8475 38.9846C14.0769 38.7162 13.3769 38.2771 12.7999 37.7001C12.2229 37.1231 11.7838 36.4231 11.5154 35.6525C11.247 34.8819 11.1563 34.0606 11.25 33.25C11.1563 32.4394 11.247 31.6181 11.5154 30.8475C11.7838 30.0769 12.2229 29.3769 12.7999 28.7999C13.3769 28.2229 14.0769 27.7838 14.8475 27.5154C15.6181 27.247 16.4394 27.1563 17.25 27.25" stroke="black" stroke-width="2" stroke-linecap="round" stroke-linejoin="round"/>
<path d="M9.258 31.25H17.258" stroke="black" stroke-width="2" stroke-linecap="round" stroke-linejoin="round"/>
<path d="M9.258 35.25H15.258" stroke="black" stroke-width="2" stroke-linecap="round" stroke-linejoin="round"/>
<path d="M35.25 9.25002H31.85C31.2886 9.24569 30.7409 9.42319 30.2888 9.75597C29.8366 10.0888 29.5044 10.5589 29.3416 11.0962C29.1789 11.6335 29.1944 12.2091 29.3859 12.7368C29.5774 13.2645 29.9346 13.7161 30.404 14.024L34.084 16.476C34.5525 16.7834 34.9093 17.2339 35.101 17.7604C35.2927 18.2869 35.3092 18.8613 35.148 19.398C34.9868 19.9347 34.6565 20.4049 34.2064 20.7386C33.7563 21.0724 33.2104 21.2517 32.65 21.25H29.25" stroke="black" stroke-width="2" stroke-linecap="round" stroke-linejoin="round"/>
<path d="M33.258 9.25V7.25" stroke="black" stroke-width="2" stroke-linecap="round" stroke-linejoin="round"/>
<path d="M31.258 23.25V21.25" stroke="black" stroke-width="2" stroke-linecap="round" stroke-linejoin="round"/>
</g>
<defs>
<clipPath id="clip0_1206_3256">
<rect width="48" height="48" fill="white" transform="translate(0.25 0.25)"/>
</clipPath>
</defs>
</svg>
