<svg width="24" height="24" viewBox="0 0 24 24" fill="none" xmlns="http://www.w3.org/2000/svg">
<path fill-rule="evenodd" clip-rule="evenodd" d="M10.1142 13.4315C10.4965 13.4315 10.8065 13.7415 10.8065 14.1238C10.8065 14.353 11.001 14.7342 11.708 15.0993C12.3797 15.4461 13.3557 15.6812 14.4718 15.6812C15.5879 15.6812 16.5642 15.4461 17.2361 15.0993C17.9435 14.7342 18.138 14.3528 18.138 14.1238C18.138 13.7415 18.448 13.4315 18.8303 13.4315C19.2126 13.4315 19.5226 13.7415 19.5226 14.1238C19.5226 15.1368 18.7414 15.8804 17.8712 16.3296C16.9656 16.7971 15.7626 17.0658 14.4718 17.0658C13.181 17.0658 11.9782 16.7971 11.0728 16.3296C10.2027 15.8803 9.42185 15.1367 9.42185 14.1238C9.42185 13.7415 9.73182 13.4315 10.1142 13.4315Z" fill="black"/>
<path fill-rule="evenodd" clip-rule="evenodd" d="M3.78606 9.1839C4.16841 9.1839 4.47836 9.49386 4.47836 9.8762C4.47836 10.1058 4.67303 10.487 5.38022 10.852C6.05207 11.1988 7.02836 11.4337 8.14459 11.4337C8.52693 11.4337 8.83689 11.7436 8.83689 12.126C8.83689 12.5083 8.52693 12.8183 8.14459 12.8183C6.85387 12.8183 5.65089 12.5498 4.74522 12.0824C3.87488 11.6333 3.09375 10.8896 3.09375 9.8762C3.09375 9.49386 3.40371 9.1839 3.78606 9.1839Z" fill="black"/>
<path fill-rule="evenodd" clip-rule="evenodd" d="M3.78606 5.25C4.16841 5.25 4.47836 5.55996 4.47836 5.94231V13.8114C4.47836 14.041 4.67303 14.4222 5.38022 14.7872C6.05207 15.1339 7.02836 15.3689 8.14459 15.3689C8.52693 15.3689 8.83689 15.6788 8.83689 16.0612C8.83689 16.4436 8.52693 16.7535 8.14459 16.7535C6.85387 16.7535 5.65089 16.485 4.74522 16.0177C3.87488 15.5685 3.09375 14.8249 3.09375 13.8114V5.94231C3.09375 5.55996 3.40371 5.25 3.78606 5.25Z" fill="black"/>
<path fill-rule="evenodd" clip-rule="evenodd" d="M5.38029 4.96658C4.67291 5.33175 4.47836 5.71303 4.47836 5.94207C4.47836 6.17164 4.67303 6.5529 5.38022 6.91786C6.05207 7.2646 7.02836 7.49953 8.14459 7.49953C8.52693 7.49953 8.83689 7.80949 8.83689 8.19184C8.83689 8.57418 8.52693 8.88414 8.14459 8.88414C6.85387 8.88414 5.65089 8.61569 4.74522 8.14829C3.87488 7.69912 3.09375 6.95549 3.09375 5.94207C3.09375 4.92903 3.87499 4.18542 4.74515 3.73624C5.65079 3.26872 6.85377 3 8.14459 3C9.43542 3 10.6384 3.26872 11.544 3.73624C12.4142 4.18542 13.1954 4.92903 13.1954 5.94207C13.1954 6.32442 12.8854 6.63438 12.5031 6.63438C12.1207 6.63438 11.8108 6.32442 11.8108 5.94207C11.8108 5.71303 11.6163 5.33175 10.9089 4.96658C10.237 4.61973 9.26068 4.38462 8.14459 4.38462C7.02847 4.38462 6.05218 4.61973 5.38029 4.96658Z" fill="black"/>
<path fill-rule="evenodd" clip-rule="evenodd" d="M10.1142 9.49759C10.4965 9.49759 10.8065 9.80755 10.8065 10.1899V18.0591C10.8065 18.2887 11.0011 18.67 11.7079 19.0349C12.3796 19.3816 13.3556 19.6165 14.4718 19.6165C15.588 19.6165 16.5643 19.3816 17.2362 19.0349C17.9433 18.6699 18.138 18.2886 18.138 18.0591V10.1899C18.138 9.80755 18.448 9.49759 18.8303 9.49759C19.2126 9.49759 19.5226 9.80755 19.5226 10.1899V18.0591C19.5226 19.0724 18.7415 19.8161 17.8711 20.2652C16.9655 20.7327 15.7626 21.0011 14.4718 21.0011C13.1811 21.0011 11.9783 20.7327 11.0729 20.2652C10.2026 19.816 9.42185 19.0723 9.42185 18.0591V10.1899C9.42185 9.80755 9.73182 9.49759 10.1142 9.49759Z" fill="black"/>
<path fill-rule="evenodd" clip-rule="evenodd" d="M11.708 9.21414C11.001 9.57923 10.8065 9.96048 10.8065 10.1897C10.8065 10.4189 11.001 10.8001 11.708 11.1652C12.3797 11.512 13.3557 11.7472 14.4718 11.7472C15.5879 11.7472 16.5642 11.512 17.2361 11.1652C17.9435 10.8 18.138 10.4187 18.138 10.1897C18.138 9.96063 17.9435 9.57934 17.2361 9.21418C16.5642 8.86733 15.5879 8.63221 14.4718 8.63221C13.3557 8.63221 12.3797 8.86733 11.708 9.21414ZM11.0728 7.98387C11.9782 7.51632 13.181 7.24759 14.4718 7.24759C15.7626 7.24759 16.9656 7.51632 17.8712 7.98383C18.7414 8.43303 19.5226 9.17662 19.5226 10.1897C19.5226 11.2027 18.7414 11.9463 17.8712 12.3955C16.9656 12.863 15.7626 13.1318 14.4718 13.1318C13.181 13.1318 11.9782 12.863 11.0728 12.3954C10.2027 11.9462 9.42185 11.2026 9.42185 10.1897C9.42185 9.17677 10.2027 8.43314 11.0728 7.98387Z" fill="black"/>
</svg>
