<svg width="49" height="49" viewBox="0 0 49 49" fill="none" xmlns="http://www.w3.org/2000/svg">
<g clip-path="url(#clip0_1206_3246)">
<path d="M25.15 25.25V47.25" stroke="black" stroke-width="2" stroke-linecap="round" stroke-linejoin="round"/>
<path d="M25.15 47.25C25.15 47.25 30.15 36.25 38.15 31.25" stroke="black" stroke-width="2" stroke-linecap="round" stroke-linejoin="round"/>
<path d="M25.15 45.25C25.15 45.25 23.15 38.25 13.15 32.25" stroke="black" stroke-width="2" stroke-linecap="round" stroke-linejoin="round"/>
<path d="M34.266 28.084C32.032 29.576 30.88 32.296 34.266 34.582C36.124 39.224 39.576 37.982 41.62 35.822C42.7666 34.1726 43.5089 32.2764 43.7869 30.287C44.0648 28.2975 43.8706 26.2705 43.22 24.37C39.96 26.834 37.05 26.228 34.266 28.084Z" stroke="black" stroke-width="2" stroke-linecap="round" stroke-linejoin="round"/>
<path d="M9.868 36.17C11.53 37.982 14.152 38.64 15.742 35.256C19.678 32.926 18.064 29.978 15.83 28.434C14.1775 27.6287 12.3587 27.2237 10.5207 27.2519C8.68262 27.28 6.87703 27.7405 5.25 28.596C7.936 31.2 7.798 33.914 9.868 36.17Z" stroke="black" stroke-width="2" stroke-linecap="round" stroke-linejoin="round"/>
<path d="M28.15 7.25H24.084C23.4609 7.25044 22.8573 7.46768 22.3768 7.86447C21.8963 8.26125 21.5689 8.81286 21.4506 9.42468C21.3324 10.0365 21.4307 10.6704 21.7287 11.2176C22.0268 11.7649 22.5059 12.1914 23.084 12.424L27.212 14.076C27.7901 14.3086 28.2692 14.7351 28.5673 15.2824C28.8653 15.8296 28.9636 16.4635 28.8454 17.0753C28.7271 17.6871 28.3997 18.2387 27.9192 18.6355C27.4387 19.0323 26.8351 19.2496 26.212 19.25H22.15" stroke="black" stroke-width="2" stroke-linecap="round" stroke-linejoin="round"/>
<path d="M25.15 21.25V19.25" stroke="black" stroke-width="2" stroke-linecap="round" stroke-linejoin="round"/>
<path d="M25.15 7.25V5.25" stroke="black" stroke-width="2" stroke-linecap="round" stroke-linejoin="round"/>
<path d="M13.15 13.25C13.15 14.8259 13.4604 16.3863 14.0634 17.8422C14.6665 19.2981 15.5504 20.621 16.6647 21.7353C17.779 22.8496 19.1019 23.7335 20.5578 24.3366C22.0137 24.9396 23.5741 25.25 25.15 25.25C26.7259 25.25 28.2863 24.9396 29.7422 24.3366C31.1981 23.7335 32.521 22.8496 33.6353 21.7353C34.7496 20.621 35.6335 19.2981 36.2365 17.8422C36.8396 16.3863 37.15 14.8259 37.15 13.25C37.15 10.0674 35.8857 7.01516 33.6353 4.76472C31.3848 2.51428 28.3326 1.25 25.15 1.25C21.9674 1.25 18.9151 2.51428 16.6647 4.76472C14.4143 7.01516 13.15 10.0674 13.15 13.25Z" stroke="black" stroke-width="2" stroke-linecap="round" stroke-linejoin="round"/>
</g>
<defs>
<clipPath id="clip0_1206_3246">
<rect width="48" height="48" fill="white" transform="translate(0.25 0.25)"/>
</clipPath>
</defs>
</svg>
