<svg width="40" height="40" viewBox="0 0 40 40" fill="none" xmlns="http://www.w3.org/2000/svg">
<path d="M27.4617 5.00673C27.74 5.03173 27.8617 5.37173 27.6617 5.57006L13.795 19.4367C13.6384 19.5935 13.5262 19.789 13.47 20.0034L11.8034 26.3867C11.7483 26.5977 11.7495 26.8193 11.8066 27.0297C11.8637 27.2401 11.9749 27.4319 12.129 27.5861C12.2832 27.7402 12.475 27.8514 12.6854 27.9085C12.8957 27.9656 13.1174 27.9667 13.3284 27.9117L19.71 26.2451C19.9245 26.1883 20.1201 26.0756 20.2767 25.9184L34.34 11.8551C34.384 11.8099 34.44 11.7783 34.5015 11.7639C34.5629 11.7496 34.6271 11.7532 34.6865 11.7742C34.746 11.7953 34.7981 11.8329 34.8369 11.8827C34.8756 11.9324 34.8992 11.9923 34.905 12.0551C35.4901 17.6378 35.4566 23.268 34.805 28.8434C34.4334 32.0184 31.8817 34.5101 28.7184 34.8651C22.9244 35.5074 17.0773 35.5074 11.2834 34.8651C8.11836 34.5101 5.56669 32.0184 5.19503 28.8434C4.50791 22.9684 4.50791 17.0334 5.19503 11.1584C5.56669 7.98173 8.11836 5.49006 11.2834 5.13673C16.6576 4.54116 22.0786 4.4976 27.4617 5.00673Z" fill="black"/>
<path d="M29.705 7.06162C29.7437 7.02282 29.7897 6.99203 29.8403 6.97103C29.891 6.95002 29.9452 6.93921 30 6.93921C30.0548 6.93921 30.1091 6.95002 30.1597 6.97103C30.2104 6.99203 30.2563 7.02282 30.295 7.06162L32.6517 9.41995C32.7296 9.49806 32.7733 9.60384 32.7733 9.71412C32.7733 9.8244 32.7296 9.93018 32.6517 10.0083L18.83 23.8333C18.7773 23.8855 18.7118 23.9228 18.64 23.9416L15.45 24.775C15.3797 24.7933 15.3058 24.7929 15.2357 24.7739C15.1656 24.7548 15.1016 24.7178 15.0503 24.6664C14.9989 24.615 14.9618 24.5511 14.9428 24.481C14.9237 24.4108 14.9234 24.3369 14.9417 24.2666L15.775 21.0766C15.7936 21.0048 15.831 20.9392 15.8834 20.8866L29.705 7.06162Z" fill="black"/>
</svg>
