<svg width="52" height="52" viewBox="0 0 52 52" fill="none" xmlns="http://www.w3.org/2000/svg">
<g clip-path="url(#clip0_2082_421)">
<rect width="52" height="52" rx="26" fill="white"/>
<path d="M26 0C40.3598 0 52 11.6402 52 26C52 40.3598 40.3598 52 26 52C11.6402 52 0 40.3598 0 26C0 11.6402 11.6402 0 26 0ZM26 36.4C25.3104 36.4 24.6491 36.6739 24.1615 37.1615C23.6739 37.6491 23.4 38.3104 23.4 39C23.4 39.6896 23.6739 40.3509 24.1615 40.8385C24.6491 41.3261 25.3104 41.6 26 41.6C26.6896 41.6 27.3509 41.3261 27.8385 40.8385C28.3261 40.3509 28.6 39.6896 28.6 39C28.6 38.3104 28.3261 37.6491 27.8385 37.1615C27.3509 36.6739 26.6896 36.4 26 36.4ZM26 11.7C23.5003 11.7 21.103 12.693 19.3355 14.4605C17.568 16.228 16.575 18.6253 16.575 21.125C16.575 21.8146 16.8489 22.4759 17.3365 22.9635C17.8241 23.4511 18.4854 23.725 19.175 23.725C19.8646 23.725 20.5259 23.4511 21.0135 22.9635C21.5011 22.4759 21.775 21.8146 21.775 21.125C21.7759 20.3581 21.9854 19.6059 22.3813 18.949C22.7771 18.2922 23.3443 17.7554 24.0219 17.3964C24.6996 17.0373 25.4622 16.8695 26.228 16.9109C26.9938 16.9523 27.7339 17.2013 28.3689 17.6313C29.0039 18.0613 29.5099 18.656 29.8327 19.3517C30.1554 20.0474 30.2827 20.8178 30.2009 21.5804C30.1191 22.3429 29.8313 23.0688 29.3684 23.6802C28.9054 24.2916 28.2848 24.7655 27.573 25.051C25.8154 25.753 23.4 27.5522 23.4 30.55V31.2C23.4 31.8896 23.6739 32.5509 24.1615 33.0385C24.6491 33.5261 25.3104 33.8 26 33.8C26.6896 33.8 27.3509 33.5261 27.8385 33.0385C28.3261 32.5509 28.6 31.8896 28.6 31.2C28.6 30.5656 28.73 30.2484 29.2786 29.978L29.5048 29.874C31.5349 29.0573 33.2177 27.5599 34.2647 25.6384C35.3117 23.7169 35.6577 21.491 35.2433 19.3424C34.829 17.1938 33.6801 15.2562 31.9936 13.8618C30.3072 12.4675 28.1882 11.7032 26 11.7Z" fill="#00327B"/>
</g>
<defs>
<clipPath id="clip0_2082_421">
<rect width="52" height="52" rx="26" fill="white"/>
</clipPath>
</defs>
</svg>
