<svg width="52" height="52" viewBox="0 0 52 52" fill="none" xmlns="http://www.w3.org/2000/svg">
<rect width="52" height="52" rx="15" fill="#00327B"/>
<g clip-path="url(#clip0_2082_420)">
<path d="M31.3333 28.6666C33.0513 28.6667 34.7029 29.33 35.9437 30.5182C37.1845 31.7063 37.9188 33.3276 37.9933 35.044L38 35.3333V36.6666C38.0002 37.3394 37.7461 37.9874 37.2887 38.4807C36.8312 38.974 36.2042 39.2762 35.5333 39.3266L35.3333 39.3333H16.6667C15.9939 39.3335 15.3459 39.0794 14.8526 38.622C14.3593 38.1645 14.0571 37.5375 14.0067 36.8666L14 36.6666V35.3333C14.0001 33.6153 14.6634 31.9637 15.8515 30.7229C17.0397 29.4821 18.661 28.7479 20.3773 28.6733L20.6667 28.6666H31.3333ZM26 12.6666C27.7681 12.6666 29.4638 13.369 30.714 14.6192C31.9643 15.8695 32.6667 17.5652 32.6667 19.3333C32.6667 21.1014 31.9643 22.7971 30.714 24.0473C29.4638 25.2976 27.7681 26 26 26C24.2319 26 22.5362 25.2976 21.286 24.0473C20.0357 22.7971 19.3333 21.1014 19.3333 19.3333C19.3333 17.5652 20.0357 15.8695 21.286 14.6192C22.5362 13.369 24.2319 12.6666 26 12.6666Z" fill="white"/>
</g>
<defs>
<clipPath id="clip0_2082_420">
<rect width="32" height="32" fill="white" transform="translate(10 10)"/>
</clipPath>
</defs>
</svg>
