<svg width="52" height="52" viewBox="0 0 52 52" fill="none" xmlns="http://www.w3.org/2000/svg">
<g clip-path="url(#clip0_2082_515)">
<path fill-rule="evenodd" clip-rule="evenodd" d="M26 47.6666C37.9665 47.6666 47.6667 37.9664 47.6667 25.9999C47.6667 14.0334 37.9665 4.33325 26 4.33325C14.0335 4.33325 4.33337 14.0334 4.33337 25.9999C4.33337 37.9664 14.0335 47.6666 26 47.6666ZM25.9892 35.1909C26.3954 34.7846 26.6236 34.2336 26.6236 33.6591C26.6236 33.0846 26.3954 32.5336 25.9892 32.1273L22.0307 28.1666H35.1954C35.77 28.1666 36.3211 27.9383 36.7274 27.532C37.1338 27.1257 37.362 26.5746 37.362 25.9999C37.362 25.4253 37.1338 24.8742 36.7274 24.4679C36.3211 24.0615 35.77 23.8333 35.1954 23.8333H22.0307L25.9935 19.8704C26.3998 19.4639 26.6279 18.9126 26.6277 18.3378C26.6275 17.7631 26.399 17.2119 25.9925 16.8057C25.5859 16.3994 25.0346 16.1713 24.4599 16.1715C23.8851 16.1717 23.334 16.4002 22.9277 16.8068L15.2685 24.4681C14.8624 24.8744 14.6342 25.4254 14.6342 25.9999C14.6342 26.5744 14.8624 27.1254 15.2685 27.5317L22.9277 35.1909C23.1289 35.3924 23.3679 35.5522 23.6309 35.6612C23.8939 35.7703 24.1759 35.8264 24.4606 35.8264C24.7454 35.8264 25.0273 35.7703 25.2903 35.6612C25.5534 35.5522 25.7923 35.3924 25.9935 35.1909H25.9892Z" fill="#00327B"/>
</g>
<defs>
<clipPath id="clip0_2082_515">
<rect width="52" height="52" fill="white"/>
</clipPath>
</defs>
</svg>
