<svg width="114" height="113" viewBox="0 0 114 113" fill="none" xmlns="http://www.w3.org/2000/svg">
<path d="M88.2866 72.4545C88.067 72.1275 87.7848 71.8463 87.4559 71.6269C87.127 71.4076 86.7579 71.2544 86.3698 71.1762C85.9816 71.0979 85.582 71.0961 85.1938 71.1709C84.8056 71.2457 84.4364 71.3956 84.1074 71.612L77.1637 76.1729L75.6889 73.9597C75.4683 73.6334 75.185 73.3532 74.8553 73.1349C74.5257 72.9167 74.156 72.7649 73.7676 72.688C73.3792 72.6111 72.9796 72.6107 72.5917 72.6869C72.2038 72.763 71.8351 72.9142 71.5068 73.1317C71.1785 73.3469 70.8965 73.6243 70.6771 73.9479C70.4576 74.2716 70.3049 74.6352 70.2277 75.0179C70.1505 75.4007 70.1505 75.795 70.2274 76.1785C70.3043 76.5619 70.4568 76.9268 70.6761 77.2524L72.6976 80.2601C73.0656 80.8074 73.5386 81.2779 74.0896 81.6447C74.6407 82.0115 75.2588 82.2674 75.9088 82.3977C76.5586 82.5294 77.2276 82.533 77.8777 82.4084C78.5278 82.2837 79.1462 82.0332 79.6975 81.6713L87.4529 76.5897C87.7822 76.3737 88.0651 76.0953 88.2853 75.7705C88.5054 75.4457 88.6585 75.0808 88.736 74.6968C88.8134 74.3127 88.8136 73.917 88.7365 73.5323C88.6594 73.1475 88.5065 72.7813 88.2866 72.4545Z" fill="#2754A5"/>
<path d="M72.0748 86.7036L72.0778 86.6889C70.0304 85.3002 68.4386 83.3473 67.5006 81.0735C66.5626 78.7996 66.3199 76.3054 66.8027 73.9017C67.2937 71.4649 68.5091 69.2319 70.2931 67.489L70.296 67.4744C70.7792 66.9824 71.0769 66.3405 71.1394 65.6559C71.2019 64.9712 71.0256 64.2851 70.6397 63.7117C70.0294 62.8156 69.3663 61.9559 68.6538 61.137C67.0578 59.2868 65.2055 57.6692 63.1525 56.3328C65.6493 55.075 67.8244 53.2735 69.5155 51.0629C71.2065 48.8524 72.3697 46.2899 72.9181 43.567C73.877 38.7701 72.875 33.7845 70.1317 29.7029C67.3884 25.6212 63.1275 22.7763 58.2827 21.7916C53.4348 20.8223 48.4045 21.7941 44.294 24.4941C40.1835 27.194 37.3281 31.402 36.3536 36.1958C35.8033 38.9199 35.8837 41.7347 36.5889 44.4288C37.2941 47.1229 38.6056 49.6263 40.4252 51.7511C35.1552 52.7284 30.3052 55.2398 26.4942 58.9646C22.6831 62.6895 20.0838 67.4589 19.0281 72.6642L17.5964 79.7657C17.4427 80.5405 17.605 81.3454 18.048 82.0045C18.491 82.6637 19.1787 83.1235 19.9608 83.2835L69.7717 93.3252C70.349 93.4456 70.9488 93.3917 71.4934 93.1705C71.9554 92.9868 72.3637 92.6921 72.6815 92.3129C72.9993 91.9338 73.2168 91.482 73.3144 90.9982L73.5383 89.8877C73.6627 89.2734 73.5883 88.635 73.3256 88.0634C73.0629 87.4918 72.6252 87.0159 72.0748 86.7036Z" fill="#80A9DA"/>
</svg>
