<svg width="179" height="179" viewBox="0 0 179 179" fill="none" xmlns="http://www.w3.org/2000/svg">
<g filter="url(#filter0_d_2082_497)">
<rect x="19" y="15" width="141" height="141" rx="9" stroke="#C5970D" stroke-width="6" shape-rendering="crispEdges"/>
<g clip-path="url(#clip0_2082_497)">
<rect x="42" y="38" width="95" height="95" rx="14" fill="white"/>
<path fill-rule="evenodd" clip-rule="evenodd" d="M89.5 45.9167V71.6459C89.5 73.1219 90.0499 74.545 91.0422 75.6376C92.0346 76.7302 93.3983 77.414 94.8675 77.5557L95.4375 77.5834H121.167V117.167C121.167 119.164 120.413 121.088 119.055 122.552C117.697 124.017 115.835 124.914 113.844 125.064L113.25 125.083H65.75C63.7527 125.084 61.829 124.33 60.3645 122.972C58.9 121.614 58.0029 119.752 57.8531 117.76L57.8333 117.167V53.8334C57.8327 51.8361 58.587 49.9124 59.9451 48.4479C61.3031 46.9834 63.1646 46.0863 65.1562 45.9365L65.75 45.9167H89.5ZM86.7014 82.2265L78.3058 90.6222C77.9277 90.9873 77.6262 91.4241 77.4187 91.907C77.2113 92.39 77.1021 92.9094 77.0975 93.435C77.093 93.9605 77.1931 94.4818 77.3921 94.9682C77.5912 95.4547 77.8851 95.8967 78.2567 96.2683C78.6284 96.64 79.0704 96.9339 79.5568 97.1329C80.0433 97.3319 80.5645 97.4321 81.0901 97.4275C81.6157 97.423 82.1351 97.3138 82.618 97.1063C83.101 96.8989 83.5378 96.5973 83.9029 96.2192L85.5416 94.5805V105.292C85.5416 106.342 85.9587 107.348 86.701 108.091C87.4433 108.833 88.4502 109.25 89.5 109.25C90.5498 109.25 91.5566 108.833 92.2989 108.091C93.0413 107.348 93.4583 106.342 93.4583 105.292V94.5805L95.0971 96.2192C95.4622 96.5973 95.899 96.8989 96.3819 97.1063C96.8648 97.3138 97.3843 97.423 97.9098 97.4275C98.4354 97.4321 98.9567 97.3319 99.4431 97.1329C99.9296 96.9339 100.372 96.64 100.743 96.2683C101.115 95.8967 101.409 95.4547 101.608 94.9682C101.807 94.4818 101.907 93.9605 101.902 93.435C101.898 92.9094 101.789 92.39 101.581 91.907C101.374 91.4241 101.072 90.9873 100.694 90.6222L92.3025 82.2265C91.9349 81.8585 91.4983 81.5665 91.0178 81.3673C90.5372 81.1681 90.0221 81.0656 89.502 81.0656C88.9818 81.0656 88.4667 81.1681 87.9861 81.3673C87.5056 81.5665 87.0691 81.8585 86.7014 82.2265ZM97.4166 46.087C98.6967 46.3587 99.8894 46.9435 100.888 47.789L101.375 48.2363L118.847 65.7084C119.775 66.6351 120.457 67.7776 120.834 69.0334L120.992 69.6667H97.4166V46.087Z" fill="#C5970D"/>
</g>
</g>
<defs>
<filter id="filter0_d_2082_497" x="0.1" y="0.1" width="178.8" height="178.8" filterUnits="userSpaceOnUse" color-interpolation-filters="sRGB">
<feFlood flood-opacity="0" result="BackgroundImageFix"/>
<feColorMatrix in="SourceAlpha" type="matrix" values="0 0 0 0 0 0 0 0 0 0 0 0 0 0 0 0 0 0 127 0" result="hardAlpha"/>
<feOffset dy="4"/>
<feGaussianBlur stdDeviation="7.95"/>
<feComposite in2="hardAlpha" operator="out"/>
<feColorMatrix type="matrix" values="0 0 0 0 0 0 0 0 0 0 0 0 0 0 0 0 0 0 0.25 0"/>
<feBlend mode="normal" in2="BackgroundImageFix" result="effect1_dropShadow_2082_497"/>
<feBlend mode="normal" in="SourceGraphic" in2="effect1_dropShadow_2082_497" result="shape"/>
</filter>
<clipPath id="clip0_2082_497">
<rect x="42" y="38" width="95" height="95" rx="14" fill="white"/>
</clipPath>
</defs>
</svg>
