<svg width="179" height="179" viewBox="0 0 179 179" fill="none" xmlns="http://www.w3.org/2000/svg">
<g filter="url(#filter0_d_2082_507)">
<rect x="19" y="15" width="141" height="141" rx="9" stroke="#C5970D" stroke-width="6" shape-rendering="crispEdges"/>
<g clip-path="url(#clip0_2082_507)">
<path fill-rule="evenodd" clip-rule="evenodd" d="M57.8334 49.875C55.7337 49.875 53.7201 50.7091 52.2354 52.1937C50.7508 53.6784 49.9167 55.692 49.9167 57.7917V113.208C49.9167 115.308 50.7508 117.322 52.2354 118.806C53.7201 120.291 55.7337 121.125 57.8334 121.125H121.167C123.266 121.125 125.28 120.291 126.765 118.806C128.249 117.322 129.083 115.308 129.083 113.208V67.6875C129.083 65.5879 128.249 63.5742 126.765 62.0896C125.28 60.6049 123.266 59.7708 121.167 59.7708H91.4L85.8623 52.8438C85.1207 51.9175 84.1804 51.1698 83.1108 50.6559C82.0413 50.142 80.8699 49.8751 79.6834 49.875H57.8334ZM78.3059 78.2642C79.0482 77.5221 80.0548 77.1052 81.1044 77.1052C82.154 77.1052 83.1606 77.5221 83.9029 78.2642L89.5 83.8613L95.0971 78.2642C95.4622 77.8861 95.899 77.5846 96.382 77.3771C96.8649 77.1696 97.3843 77.0605 97.9099 77.0559C98.4355 77.0513 98.9567 77.1515 99.4432 77.3505C99.9296 77.5495 100.372 77.8434 100.743 78.2151C101.115 78.5868 101.409 79.0287 101.608 79.5152C101.807 80.0016 101.907 80.5229 101.902 81.0485C101.898 81.574 101.789 82.0935 101.581 82.5764C101.374 83.0593 101.072 83.4961 100.694 83.8613L95.0971 89.4583L100.694 95.0554C101.415 95.802 101.814 96.8018 101.805 97.8397C101.796 98.8776 101.38 99.8704 100.646 100.604C99.9121 101.338 98.9193 101.754 97.8814 101.763C96.8435 101.773 95.8437 101.374 95.0971 100.653L89.5 95.0554L83.9029 100.653C83.5378 101.031 83.101 101.332 82.6181 101.54C82.1351 101.747 81.6157 101.856 81.0902 101.861C80.5646 101.865 80.0433 101.765 79.5569 101.566C79.0704 101.367 78.6285 101.073 78.2568 100.702C77.8851 100.33 77.5912 99.888 77.3922 99.4015C77.1932 98.915 77.093 98.3938 77.0976 97.8682C77.1021 97.3426 77.2113 96.8232 77.4188 96.3403C77.6262 95.8573 77.9278 95.4206 78.3059 95.0554L83.9029 89.4583L78.3059 83.8613C77.5638 83.119 77.1469 82.1123 77.1469 81.0627C77.1469 80.0131 77.5638 79.0065 78.3059 78.2642Z" fill="#C5970D"/>
</g>
</g>
<defs>
<filter id="filter0_d_2082_507" x="0.1" y="0.1" width="178.8" height="178.8" filterUnits="userSpaceOnUse" color-interpolation-filters="sRGB">
<feFlood flood-opacity="0" result="BackgroundImageFix"/>
<feColorMatrix in="SourceAlpha" type="matrix" values="0 0 0 0 0 0 0 0 0 0 0 0 0 0 0 0 0 0 127 0" result="hardAlpha"/>
<feOffset dy="4"/>
<feGaussianBlur stdDeviation="7.95"/>
<feComposite in2="hardAlpha" operator="out"/>
<feColorMatrix type="matrix" values="0 0 0 0 0 0 0 0 0 0 0 0 0 0 0 0 0 0 0.25 0"/>
<feBlend mode="normal" in2="BackgroundImageFix" result="effect1_dropShadow_2082_507"/>
<feBlend mode="normal" in="SourceGraphic" in2="effect1_dropShadow_2082_507" result="shape"/>
</filter>
<clipPath id="clip0_2082_507">
<rect width="95" height="95" fill="white" transform="translate(42 38)"/>
</clipPath>
</defs>
</svg>
